M48
METRIC,LZ,000.000
;FILE_FORMAT=3:3
;TYPE=PLATED
;Layer: PTH_Through
;EasyEDA v6.5.44, 2024-09-18 08:49:22
;5f0ec6a2444f475180eab9a5ccfc1f11,63b8e65828324c89aad8d8d9142c2ac9,10
;Gerber Generator version 0.2
;Holesize 1 = 0.600 mm
T01C0.600
;Holesize 2 = 0.901 mm
T02C0.901
;Holesize 3 = 0.915 mm
T03C0.915
;Holesize 4 = 1.000 mm
T04C1.000
;Holesize 5 = 1.016 mm
T05C1.016
;Holesize 6 = 1.050 mm
T06C1.050
;Holesize 7 = 3.000 mm
T07C3.000
%
G05
G90
T01
X014224Y071755
X030861Y029464
X017846Y040833
X016764Y036576
T02
X011582Y063693
X014122Y063693
X016662Y063693
X019202Y063693
T03
X001524Y049784
X001524Y047244
X001524Y044704
X001524Y042164
X001524Y039624
X001524Y037084
X001524Y034544
X001524Y032004
X001524Y029464
X001524Y026924
X001524Y024384
X001524Y021844
X001524Y019304
X001524Y016764
X001524Y014224
X001524Y011684
X001524Y009144
X001524Y006604
X001524Y004064
X001524Y001524
X028448Y049784
X028448Y047244
X028448Y044704
X028448Y042164
X028448Y039624
X028448Y037084
X028448Y034544
X028448Y032004
X028448Y029464
X028448Y026924
X028448Y024384
X028448Y021844
X028448Y019304
X028448Y016764
X028448Y014224
X028448Y011684
X028448Y009144
X028448Y006604
X028448Y004064
X028448Y001524
X021333Y001397
X021333Y003937
X021333Y006477
X021333Y009017
X021333Y011557
T04
X010414Y069723
X012954Y069723
X015494Y069723
X018034Y069723
X020574Y069723
X012954Y069723
T05
X005715Y019431
X005715Y021971
X005715Y024511
X005715Y027051
X005715Y029591
X005715Y016891
X010286Y048513
X010286Y045973
X010286Y043433
X010286Y051053
X010286Y053593
X020446Y048513
X020446Y051053
X020446Y053593
X020446Y056133
X020446Y045973
X020446Y043433
X020446Y040893
T06
X009505Y035560
X007005Y035560
T07
X005494Y070953
X025494Y070953
M30
