G04 Layer: TopLayer*
G04 EasyEDA v6.5.44, 2024-09-18 08:49:22*
G04 5f0ec6a2444f475180eab9a5ccfc1f11,63b8e65828324c89aad8d8d9142c2ac9,10*
G04 Gerber Generator version 0.2*
G04 Scale: 100 percent, Rotated: No, Reflected: No *
G04 Dimensions in millimeters *
G04 leading zeros omitted , absolute positions ,4 integer and 5 decimal *
%FSLAX45Y45*%
%MOMM*%

%AMMACRO1*21,1,$1,$2,0,0,$3*%
%ADD10C,0.5000*%
%ADD11C,1.6000*%
%ADD12C,4.0000*%
%ADD13R,1.5240X1.5240*%
%ADD14C,1.5240*%
%ADD15C,1.7000*%
%ADD16R,1.7000X1.7000*%
%ADD17C,1.5000*%
%ADD18MACRO1,1.698X1.4135X0.0000*%
%ADD19C,2.0320*%
%ADD20C,1.5000*%

%LPD*%
D10*
X1422400Y7175500D02*
G01*
X2070100Y7175500D01*
X3086100Y6159500D01*
X3086100Y2946400D01*
X1784598Y4083296D02*
G01*
X1784598Y3765798D01*
X1676400Y3657600D01*
D11*
G01*
X1041400Y6972300D03*
G01*
X1295400Y6972300D03*
G01*
X1549400Y6972300D03*
G01*
X1803400Y6972300D03*
G01*
X2057400Y6972300D03*
D12*
G01*
X549402Y7095286D03*
G01*
X2549397Y7095286D03*
D13*
G01*
X152400Y4978400D03*
D14*
G01*
X152400Y4724400D03*
G01*
X152400Y4470400D03*
G01*
X152400Y4216400D03*
G01*
X152400Y3962400D03*
G01*
X152400Y3708400D03*
G01*
X152400Y3454400D03*
G01*
X152400Y3200400D03*
G01*
X152400Y2946400D03*
G01*
X152400Y2692400D03*
G01*
X152400Y2438400D03*
G01*
X152400Y2184400D03*
G01*
X152400Y1930400D03*
G01*
X152400Y1676400D03*
G01*
X152400Y1422400D03*
G01*
X152400Y1168400D03*
G01*
X152400Y914400D03*
G01*
X152400Y660400D03*
G01*
X152400Y406400D03*
G01*
X152400Y152400D03*
D13*
G01*
X2844800Y4978400D03*
D14*
G01*
X2844800Y4724400D03*
G01*
X2844800Y4470400D03*
G01*
X2844800Y4216400D03*
G01*
X2844800Y3962400D03*
G01*
X2844800Y3708400D03*
G01*
X2844800Y3454400D03*
G01*
X2844800Y3200400D03*
G01*
X2844800Y2946400D03*
G01*
X2844800Y2692400D03*
G01*
X2844800Y2438400D03*
G01*
X2844800Y2184400D03*
G01*
X2844800Y1930400D03*
G01*
X2844800Y1676400D03*
G01*
X2844800Y1422400D03*
G01*
X2844800Y1168400D03*
G01*
X2844800Y914400D03*
G01*
X2844800Y660400D03*
G01*
X2844800Y406400D03*
G01*
X2844800Y152400D03*
D15*
G01*
X950518Y3556000D03*
G01*
X700506Y3556000D03*
D16*
G01*
X1158189Y6369304D03*
D15*
G01*
X1412189Y6369304D03*
G01*
X1666189Y6369304D03*
G01*
X1920189Y6369304D03*
D14*
G01*
X2133295Y139700D03*
G01*
X2133295Y393700D03*
G01*
X2133295Y647700D03*
G01*
X2133295Y901700D03*
G01*
X2133295Y1155700D03*
D17*
G01*
X571474Y1943125D03*
D18*
G01*
X571487Y2197112D03*
G01*
X571487Y2451112D03*
G01*
X571487Y2705112D03*
G01*
X571487Y2959112D03*
G01*
X571487Y1689112D03*
D19*
G01*
X1028623Y4851323D03*
G01*
X1028623Y4597323D03*
G01*
X1028623Y4343323D03*
G01*
X1028623Y5105323D03*
G01*
X1028623Y5359323D03*
G01*
X2044623Y4851323D03*
G01*
X2044623Y5105323D03*
G01*
X2044623Y5359323D03*
G01*
X2044623Y5613323D03*
G01*
X2044623Y4597323D03*
G01*
X2044623Y4343323D03*
G01*
X2044623Y4089323D03*
D11*
G01*
X1295400Y6972300D03*
D20*
G01*
X1422400Y7175500D03*
G01*
X3086100Y2946400D03*
G01*
X1784598Y4083296D03*
G01*
X1676400Y3657600D03*
M02*
