G04 Layer: TopSilkscreenLayer*
G04 EasyEDA v6.5.44, 2024-09-18 08:49:22*
G04 5f0ec6a2444f475180eab9a5ccfc1f11,63b8e65828324c89aad8d8d9142c2ac9,10*
G04 Gerber Generator version 0.2*
G04 Scale: 100 percent, Rotated: No, Reflected: No *
G04 Dimensions in millimeters *
G04 leading zeros omitted , absolute positions ,4 integer and 5 decimal *
%FSLAX45Y45*%
%MOMM*%

%ADD10C,0.1524*%
%ADD11C,0.2032*%
%ADD12C,0.2540*%

%LPD*%
D10*
X1524000Y7519415D02*
G01*
X1524000Y7441437D01*
X1529079Y7425944D01*
X1539494Y7415529D01*
X1555242Y7410450D01*
X1565655Y7410450D01*
X1581150Y7415529D01*
X1591563Y7425944D01*
X1596644Y7441437D01*
X1596644Y7519415D01*
X1636268Y7493508D02*
G01*
X1636268Y7498587D01*
X1641347Y7509002D01*
X1646681Y7514336D01*
X1657095Y7519415D01*
X1677670Y7519415D01*
X1688084Y7514336D01*
X1693418Y7509002D01*
X1698497Y7498587D01*
X1698497Y7488173D01*
X1693418Y7477760D01*
X1683004Y7462265D01*
X1630934Y7410450D01*
X1703831Y7410450D01*
X152400Y5246115D02*
G01*
X152400Y5137150D01*
X152400Y5246115D02*
G01*
X199136Y5246115D01*
X214629Y5241036D01*
X219963Y5235702D01*
X225044Y5225287D01*
X225044Y5209794D01*
X219963Y5199379D01*
X214629Y5194300D01*
X199136Y5188965D01*
X152400Y5188965D01*
X259334Y5225287D02*
G01*
X269747Y5230621D01*
X285495Y5246115D01*
X285495Y5137150D01*
X2844800Y5246115D02*
G01*
X2844800Y5137150D01*
X2844800Y5246115D02*
G01*
X2891536Y5246115D01*
X2907029Y5241036D01*
X2912363Y5235702D01*
X2917443Y5225287D01*
X2917443Y5209794D01*
X2912363Y5199379D01*
X2907029Y5194300D01*
X2891536Y5188965D01*
X2844800Y5188965D01*
X2957068Y5220207D02*
G01*
X2957068Y5225287D01*
X2962147Y5235702D01*
X2967481Y5241036D01*
X2977895Y5246115D01*
X2998470Y5246115D01*
X3008884Y5241036D01*
X3014218Y5235702D01*
X3019297Y5225287D01*
X3019297Y5214873D01*
X3014218Y5204460D01*
X3003804Y5188965D01*
X2951734Y5137150D01*
X3024631Y5137150D01*
X733056Y3820921D02*
G01*
X722642Y3831336D01*
X707148Y3836415D01*
X686320Y3836415D01*
X670826Y3831336D01*
X660412Y3820921D01*
X660412Y3810507D01*
X665492Y3800094D01*
X670826Y3794760D01*
X681240Y3789679D01*
X712482Y3779265D01*
X722642Y3774186D01*
X727976Y3768852D01*
X733056Y3758437D01*
X733056Y3742944D01*
X722642Y3732529D01*
X707148Y3727450D01*
X686320Y3727450D01*
X670826Y3732529D01*
X660412Y3742944D01*
X767346Y3836415D02*
G01*
X793508Y3727450D01*
X819416Y3836415D02*
G01*
X793508Y3727450D01*
X819416Y3836415D02*
G01*
X845324Y3727450D01*
X871232Y3836415D02*
G01*
X845324Y3727450D01*
X910856Y3810507D02*
G01*
X910856Y3815587D01*
X915936Y3826002D01*
X921270Y3831336D01*
X931684Y3836415D01*
X952512Y3836415D01*
X962672Y3831336D01*
X968006Y3826002D01*
X973086Y3815587D01*
X973086Y3805173D01*
X968006Y3794760D01*
X957592Y3779265D01*
X905522Y3727450D01*
X978420Y3727450D01*
X1498600Y5398515D02*
G01*
X1498600Y5320537D01*
X1503679Y5305044D01*
X1514094Y5294629D01*
X1529842Y5289550D01*
X1540255Y5289550D01*
X1555750Y5294629D01*
X1566163Y5305044D01*
X1571244Y5320537D01*
X1571244Y5398515D01*
X1605534Y5377687D02*
G01*
X1615947Y5383021D01*
X1631695Y5398515D01*
X1631695Y5289550D01*
X1421384Y381000D02*
G01*
X1499362Y381000D01*
X1514855Y386079D01*
X1525270Y396494D01*
X1530350Y412242D01*
X1530350Y422655D01*
X1525270Y438150D01*
X1514855Y448563D01*
X1499362Y453644D01*
X1421384Y453644D01*
X1421384Y498347D02*
G01*
X1421384Y555497D01*
X1463039Y524510D01*
X1463039Y540004D01*
X1468120Y550418D01*
X1473200Y555497D01*
X1488947Y560831D01*
X1499362Y560831D01*
X1514855Y555497D01*
X1525270Y545084D01*
X1530350Y529589D01*
X1530350Y514095D01*
X1525270Y498347D01*
X1520189Y493268D01*
X1509776Y487934D01*
X1968550Y3417392D02*
G01*
X1968550Y3339414D01*
X1973630Y3323920D01*
X1984044Y3313506D01*
X1999792Y3308426D01*
X2010206Y3308426D01*
X2025700Y3313506D01*
X2036114Y3323920D01*
X2041194Y3339414D01*
X2041194Y3417392D01*
X2127554Y3417392D02*
G01*
X2075484Y3344748D01*
X2153462Y3344748D01*
X2127554Y3417392D02*
G01*
X2127554Y3308426D01*
X801420Y2253310D02*
G01*
X797864Y2260168D01*
X791006Y2267026D01*
X783894Y2270582D01*
X770178Y2270582D01*
X763320Y2267026D01*
X756208Y2260168D01*
X752906Y2253310D01*
X749350Y2242896D01*
X749350Y2225370D01*
X752906Y2215210D01*
X756208Y2208098D01*
X763320Y2201240D01*
X770178Y2197684D01*
X783894Y2197684D01*
X791006Y2201240D01*
X797864Y2208098D01*
X801420Y2215210D01*
X824280Y2270582D02*
G01*
X824280Y2197684D01*
X824280Y2197684D02*
G01*
X865682Y2197684D01*
X888542Y2270582D02*
G01*
X888542Y2197684D01*
X937056Y2270582D02*
G01*
X888542Y2222068D01*
X905814Y2239340D02*
G01*
X937056Y2197684D01*
X801420Y2761310D02*
G01*
X797864Y2768168D01*
X791006Y2775026D01*
X783894Y2778582D01*
X770178Y2778582D01*
X763320Y2775026D01*
X756208Y2768168D01*
X752906Y2761310D01*
X749350Y2750896D01*
X749350Y2733370D01*
X752906Y2723210D01*
X756208Y2716098D01*
X763320Y2709240D01*
X770178Y2705684D01*
X783894Y2705684D01*
X791006Y2709240D01*
X797864Y2716098D01*
X801420Y2723210D01*
X872540Y2768168D02*
G01*
X865682Y2775026D01*
X855268Y2778582D01*
X841552Y2778582D01*
X831138Y2775026D01*
X824280Y2768168D01*
X824280Y2761310D01*
X827582Y2754198D01*
X831138Y2750896D01*
X837996Y2747340D01*
X858824Y2740482D01*
X865682Y2736926D01*
X869238Y2733370D01*
X872540Y2726512D01*
X872540Y2716098D01*
X865682Y2709240D01*
X855268Y2705684D01*
X841552Y2705684D01*
X831138Y2709240D01*
X824280Y2716098D01*
X749350Y2524582D02*
G01*
X749350Y2451684D01*
X749350Y2524582D02*
G01*
X777036Y2451684D01*
X804722Y2524582D02*
G01*
X777036Y2451684D01*
X804722Y2524582D02*
G01*
X804722Y2451684D01*
X848410Y2524582D02*
G01*
X841552Y2521026D01*
X834440Y2514168D01*
X831138Y2507310D01*
X827582Y2496896D01*
X827582Y2479370D01*
X831138Y2469210D01*
X834440Y2462098D01*
X841552Y2455240D01*
X848410Y2451684D01*
X862380Y2451684D01*
X869238Y2455240D01*
X876096Y2462098D01*
X879652Y2469210D01*
X882954Y2479370D01*
X882954Y2496896D01*
X879652Y2507310D01*
X876096Y2514168D01*
X869238Y2521026D01*
X862380Y2524582D01*
X848410Y2524582D01*
X954328Y2514168D02*
G01*
X947470Y2521026D01*
X937056Y2524582D01*
X923340Y2524582D01*
X912926Y2521026D01*
X905814Y2514168D01*
X905814Y2507310D01*
X909370Y2500198D01*
X912926Y2496896D01*
X919784Y2493340D01*
X940612Y2486482D01*
X947470Y2482926D01*
X951026Y2479370D01*
X954328Y2472512D01*
X954328Y2462098D01*
X947470Y2455240D01*
X937056Y2451684D01*
X923340Y2451684D01*
X912926Y2455240D01*
X905814Y2462098D01*
X977188Y2524582D02*
G01*
X977188Y2451684D01*
X801420Y1745310D02*
G01*
X797864Y1752168D01*
X791006Y1759026D01*
X783894Y1762582D01*
X770178Y1762582D01*
X763320Y1759026D01*
X756208Y1752168D01*
X752906Y1745310D01*
X749350Y1734896D01*
X749350Y1717370D01*
X752906Y1707210D01*
X756208Y1700098D01*
X763320Y1693240D01*
X770178Y1689684D01*
X783894Y1689684D01*
X791006Y1693240D01*
X797864Y1700098D01*
X801420Y1707210D01*
X801420Y1717370D01*
X783894Y1717370D02*
G01*
X801420Y1717370D01*
X824280Y1762582D02*
G01*
X824280Y1689684D01*
X824280Y1762582D02*
G01*
X872540Y1689684D01*
X872540Y1762582D02*
G01*
X872540Y1689684D01*
X895400Y1762582D02*
G01*
X895400Y1689684D01*
X895400Y1762582D02*
G01*
X919784Y1762582D01*
X930198Y1759026D01*
X937056Y1752168D01*
X940612Y1745310D01*
X943914Y1734896D01*
X943914Y1717370D01*
X940612Y1707210D01*
X937056Y1700098D01*
X930198Y1693240D01*
X919784Y1689684D01*
X895400Y1689684D01*
X756208Y3032582D02*
G01*
X794308Y3032582D01*
X773480Y3004896D01*
X783894Y3004896D01*
X791006Y3001340D01*
X794308Y2997784D01*
X797864Y2987370D01*
X797864Y2980512D01*
X794308Y2970098D01*
X787450Y2963240D01*
X777036Y2959684D01*
X766622Y2959684D01*
X756208Y2963240D01*
X752906Y2966796D01*
X749350Y2973654D01*
X820724Y3032582D02*
G01*
X848410Y2959684D01*
X876096Y3032582D02*
G01*
X848410Y2959684D01*
X905814Y3032582D02*
G01*
X943914Y3032582D01*
X923340Y3004896D01*
X933500Y3004896D01*
X940612Y3001340D01*
X943914Y2997784D01*
X947470Y2987370D01*
X947470Y2980512D01*
X943914Y2970098D01*
X937056Y2963240D01*
X926642Y2959684D01*
X916228Y2959684D01*
X905814Y2963240D01*
X902512Y2966796D01*
X898956Y2973654D01*
X749350Y2016582D02*
G01*
X749350Y1943684D01*
X749350Y2016582D02*
G01*
X777036Y1943684D01*
X804722Y2016582D02*
G01*
X777036Y1943684D01*
X804722Y2016582D02*
G01*
X804722Y1943684D01*
X827582Y2016582D02*
G01*
X827582Y1943684D01*
X898956Y2006168D02*
G01*
X892098Y2013026D01*
X881684Y2016582D01*
X867714Y2016582D01*
X857300Y2013026D01*
X850442Y2006168D01*
X850442Y1999310D01*
X853998Y1992198D01*
X857300Y1988896D01*
X864412Y1985340D01*
X885240Y1978482D01*
X892098Y1974926D01*
X895400Y1971370D01*
X898956Y1964512D01*
X898956Y1954098D01*
X892098Y1947240D01*
X881684Y1943684D01*
X867714Y1943684D01*
X857300Y1947240D01*
X850442Y1954098D01*
X942644Y2016582D02*
G01*
X935786Y2013026D01*
X928674Y2006168D01*
X925372Y1999310D01*
X921816Y1988896D01*
X921816Y1971370D01*
X925372Y1961210D01*
X928674Y1954098D01*
X935786Y1947240D01*
X942644Y1943684D01*
X956360Y1943684D01*
X963472Y1947240D01*
X970330Y1954098D01*
X973886Y1961210D01*
X977188Y1971370D01*
X977188Y1988896D01*
X973886Y1999310D01*
X970330Y2006168D01*
X963472Y2013026D01*
X956360Y2016582D01*
X942644Y2016582D01*
X723950Y1544904D02*
G01*
X723950Y1447876D01*
X723950Y1544904D02*
G01*
X760780Y1447876D01*
X797864Y1544904D02*
G01*
X760780Y1447876D01*
X797864Y1544904D02*
G01*
X797864Y1447876D01*
X828344Y1544904D02*
G01*
X832916Y1540332D01*
X837488Y1544904D01*
X832916Y1549476D01*
X828344Y1544904D01*
X832916Y1512646D02*
G01*
X832916Y1447876D01*
X923340Y1498676D02*
G01*
X914196Y1508074D01*
X905052Y1512646D01*
X891082Y1512646D01*
X881938Y1508074D01*
X872540Y1498676D01*
X867968Y1484960D01*
X867968Y1475562D01*
X872540Y1461846D01*
X881938Y1452702D01*
X891082Y1447876D01*
X905052Y1447876D01*
X914196Y1452702D01*
X923340Y1461846D01*
X953820Y1512646D02*
G01*
X953820Y1447876D01*
X953820Y1484960D02*
G01*
X958646Y1498676D01*
X967790Y1508074D01*
X976934Y1512646D01*
X990904Y1512646D01*
X1044498Y1512646D02*
G01*
X1035100Y1508074D01*
X1025956Y1498676D01*
X1021384Y1484960D01*
X1021384Y1475562D01*
X1025956Y1461846D01*
X1035100Y1452702D01*
X1044498Y1447876D01*
X1058214Y1447876D01*
X1067612Y1452702D01*
X1076756Y1461846D01*
X1081328Y1475562D01*
X1081328Y1484960D01*
X1076756Y1498676D01*
X1067612Y1508074D01*
X1058214Y1512646D01*
X1044498Y1512646D01*
X1247698Y1531188D02*
G01*
X1238300Y1540332D01*
X1224584Y1544904D01*
X1206042Y1544904D01*
X1192326Y1540332D01*
X1182928Y1531188D01*
X1182928Y1521790D01*
X1187500Y1512646D01*
X1192326Y1508074D01*
X1201470Y1503502D01*
X1229156Y1494104D01*
X1238300Y1489532D01*
X1243126Y1484960D01*
X1247698Y1475562D01*
X1247698Y1461846D01*
X1238300Y1452702D01*
X1224584Y1447876D01*
X1206042Y1447876D01*
X1192326Y1452702D01*
X1182928Y1461846D01*
X1278178Y1544904D02*
G01*
X1278178Y1447876D01*
X1278178Y1544904D02*
G01*
X1310436Y1544904D01*
X1324406Y1540332D01*
X1333550Y1531188D01*
X1338122Y1521790D01*
X1342694Y1508074D01*
X1342694Y1484960D01*
X1338122Y1470990D01*
X1333550Y1461846D01*
X1324406Y1452702D01*
X1310436Y1447876D01*
X1278178Y1447876D01*
X1513636Y1521790D02*
G01*
X1509064Y1531188D01*
X1499920Y1540332D01*
X1490522Y1544904D01*
X1471980Y1544904D01*
X1462836Y1540332D01*
X1453692Y1531188D01*
X1449120Y1521790D01*
X1444294Y1508074D01*
X1444294Y1484960D01*
X1449120Y1470990D01*
X1453692Y1461846D01*
X1462836Y1452702D01*
X1471980Y1447876D01*
X1490522Y1447876D01*
X1499920Y1452702D01*
X1509064Y1461846D01*
X1513636Y1470990D01*
X1599488Y1512646D02*
G01*
X1599488Y1447876D01*
X1599488Y1498676D02*
G01*
X1590344Y1508074D01*
X1581200Y1512646D01*
X1567230Y1512646D01*
X1558086Y1508074D01*
X1548688Y1498676D01*
X1544116Y1484960D01*
X1544116Y1475562D01*
X1548688Y1461846D01*
X1558086Y1452702D01*
X1567230Y1447876D01*
X1581200Y1447876D01*
X1590344Y1452702D01*
X1599488Y1461846D01*
X1629968Y1512646D02*
G01*
X1629968Y1447876D01*
X1629968Y1484960D02*
G01*
X1634540Y1498676D01*
X1643938Y1508074D01*
X1653082Y1512646D01*
X1667052Y1512646D01*
X1752904Y1544904D02*
G01*
X1752904Y1447876D01*
X1752904Y1498676D02*
G01*
X1743760Y1508074D01*
X1734362Y1512646D01*
X1720646Y1512646D01*
X1711248Y1508074D01*
X1702104Y1498676D01*
X1697532Y1484960D01*
X1697532Y1475562D01*
X1702104Y1461846D01*
X1711248Y1452702D01*
X1720646Y1447876D01*
X1734362Y1447876D01*
X1743760Y1452702D01*
X1752904Y1461846D01*
X1854504Y1544904D02*
G01*
X1854504Y1447876D01*
X1854504Y1544904D02*
G01*
X1891334Y1447876D01*
X1928418Y1544904D02*
G01*
X1891334Y1447876D01*
X1928418Y1544904D02*
G01*
X1928418Y1447876D01*
X1982012Y1512646D02*
G01*
X1972614Y1508074D01*
X1963470Y1498676D01*
X1958898Y1484960D01*
X1958898Y1475562D01*
X1963470Y1461846D01*
X1972614Y1452702D01*
X1982012Y1447876D01*
X1995728Y1447876D01*
X2005126Y1452702D01*
X2014270Y1461846D01*
X2018842Y1475562D01*
X2018842Y1484960D01*
X2014270Y1498676D01*
X2005126Y1508074D01*
X1995728Y1512646D01*
X1982012Y1512646D01*
X2104694Y1544904D02*
G01*
X2104694Y1447876D01*
X2104694Y1498676D02*
G01*
X2095550Y1508074D01*
X2086406Y1512646D01*
X2072436Y1512646D01*
X2063292Y1508074D01*
X2053894Y1498676D01*
X2049322Y1484960D01*
X2049322Y1475562D01*
X2053894Y1461846D01*
X2063292Y1452702D01*
X2072436Y1447876D01*
X2086406Y1447876D01*
X2095550Y1452702D01*
X2104694Y1461846D01*
X2135174Y1512646D02*
G01*
X2135174Y1466418D01*
X2140000Y1452702D01*
X2149144Y1447876D01*
X2162860Y1447876D01*
X2172258Y1452702D01*
X2185974Y1466418D01*
X2185974Y1512646D02*
G01*
X2185974Y1447876D01*
X2216454Y1544904D02*
G01*
X2216454Y1447876D01*
X2246934Y1484960D02*
G01*
X2302560Y1484960D01*
X2302560Y1494104D01*
X2297734Y1503502D01*
X2293162Y1508074D01*
X2284018Y1512646D01*
X2270048Y1512646D01*
X2260904Y1508074D01*
X2251760Y1498676D01*
X2246934Y1484960D01*
X2246934Y1475562D01*
X2251760Y1461846D01*
X2260904Y1452702D01*
X2270048Y1447876D01*
X2284018Y1447876D01*
X2293162Y1452702D01*
X2302560Y1461846D01*
X1449252Y3817993D02*
G01*
X1459666Y3807579D01*
X1475160Y3802499D01*
X1495988Y3802499D01*
X1511482Y3807579D01*
X1521896Y3817993D01*
X1521896Y3828407D01*
X1516816Y3838821D01*
X1511482Y3844155D01*
X1501068Y3849235D01*
X1469826Y3859649D01*
X1459666Y3864729D01*
X1454332Y3870063D01*
X1449252Y3880477D01*
X1449252Y3895971D01*
X1459666Y3906385D01*
X1475160Y3911465D01*
X1495988Y3911465D01*
X1511482Y3906385D01*
X1521896Y3895971D01*
X1414962Y3823327D02*
G01*
X1404548Y3817993D01*
X1388800Y3802499D01*
X1388800Y3911465D01*
D11*
X810376Y4320854D02*
G01*
X819774Y4325426D01*
X828918Y4334824D01*
X833490Y4343968D01*
X838316Y4357938D01*
X838316Y4381052D01*
X833490Y4394768D01*
X828918Y4403912D01*
X819774Y4413310D01*
X810376Y4417882D01*
X792088Y4417882D01*
X782690Y4413310D01*
X773546Y4403912D01*
X768974Y4394768D01*
X764402Y4381052D01*
X764402Y4357938D01*
X768974Y4343968D01*
X773546Y4334824D01*
X782690Y4325426D01*
X792088Y4320854D01*
X810376Y4320854D01*
X664580Y4343968D02*
G01*
X669152Y4334824D01*
X678296Y4325426D01*
X687694Y4320854D01*
X706236Y4320854D01*
X715380Y4325426D01*
X724524Y4334824D01*
X729096Y4343968D01*
X733922Y4357938D01*
X733922Y4381052D01*
X729096Y4394768D01*
X724524Y4403912D01*
X715380Y4413310D01*
X706236Y4417882D01*
X687694Y4417882D01*
X678296Y4413310D01*
X669152Y4403912D01*
X664580Y4394768D01*
X569330Y4334824D02*
G01*
X578728Y4325426D01*
X592444Y4320854D01*
X610986Y4320854D01*
X624956Y4325426D01*
X634100Y4334824D01*
X634100Y4343968D01*
X629528Y4353112D01*
X624956Y4357938D01*
X615558Y4362510D01*
X587872Y4371654D01*
X578728Y4376226D01*
X574156Y4381052D01*
X569330Y4390196D01*
X569330Y4403912D01*
X578728Y4413310D01*
X592444Y4417882D01*
X610986Y4417882D01*
X624956Y4413310D01*
X634100Y4403912D01*
X838141Y4574910D02*
G01*
X838141Y4671938D01*
X807661Y4574910D02*
G01*
X807661Y4671938D01*
X807661Y4574910D02*
G01*
X743145Y4671938D01*
X743145Y4574910D02*
G01*
X743145Y4671938D01*
X680153Y4574910D02*
G01*
X680153Y4671938D01*
X712665Y4574910D02*
G01*
X647895Y4574910D01*
X617415Y4593452D02*
G01*
X608271Y4588880D01*
X594301Y4574910D01*
X594301Y4671938D01*
X838136Y4828905D02*
G01*
X838136Y4925933D01*
X807656Y4828905D02*
G01*
X807656Y4925933D01*
X807656Y4828905D02*
G01*
X743140Y4925933D01*
X743140Y4828905D02*
G01*
X743140Y4925933D01*
X680148Y4828905D02*
G01*
X680148Y4925933D01*
X712660Y4828905D02*
G01*
X647890Y4828905D01*
X612838Y4852019D02*
G01*
X612838Y4847447D01*
X608266Y4838049D01*
X603694Y4833477D01*
X594296Y4828905D01*
X576008Y4828905D01*
X566610Y4833477D01*
X562038Y4838049D01*
X557466Y4847447D01*
X557466Y4856591D01*
X562038Y4865735D01*
X571182Y4879705D01*
X617410Y4925933D01*
X552894Y4925933D01*
X773623Y5096875D02*
G01*
X782767Y5087477D01*
X796737Y5082905D01*
X815025Y5082905D01*
X828995Y5087477D01*
X838139Y5096875D01*
X838139Y5106019D01*
X833567Y5115163D01*
X828995Y5119735D01*
X819851Y5124561D01*
X791911Y5133705D01*
X782767Y5138277D01*
X778195Y5142849D01*
X773623Y5152247D01*
X773623Y5165963D01*
X782767Y5175361D01*
X796737Y5179933D01*
X815025Y5179933D01*
X828995Y5175361D01*
X838139Y5165963D01*
X673801Y5106019D02*
G01*
X678373Y5096875D01*
X687771Y5087477D01*
X696915Y5082905D01*
X715457Y5082905D01*
X724601Y5087477D01*
X733745Y5096875D01*
X738571Y5106019D01*
X743143Y5119735D01*
X743143Y5142849D01*
X738571Y5156819D01*
X733745Y5165963D01*
X724601Y5175361D01*
X715457Y5179933D01*
X696915Y5179933D01*
X687771Y5175361D01*
X678373Y5165963D01*
X673801Y5156819D01*
X643321Y5082905D02*
G01*
X578551Y5179933D01*
X578551Y5082905D02*
G01*
X643321Y5179933D01*
X773625Y5350878D02*
G01*
X782769Y5341480D01*
X796739Y5336908D01*
X815027Y5336908D01*
X828997Y5341480D01*
X838141Y5350878D01*
X838141Y5360022D01*
X833569Y5369166D01*
X828997Y5373738D01*
X819853Y5378564D01*
X791913Y5387708D01*
X782769Y5392280D01*
X778197Y5396852D01*
X773625Y5406250D01*
X773625Y5419966D01*
X782769Y5429364D01*
X796739Y5433936D01*
X815027Y5433936D01*
X828997Y5429364D01*
X838141Y5419966D01*
X743145Y5336908D02*
G01*
X743145Y5433936D01*
X743145Y5336908D02*
G01*
X710633Y5336908D01*
X696917Y5341480D01*
X687773Y5350878D01*
X682947Y5360022D01*
X678375Y5373738D01*
X678375Y5396852D01*
X682947Y5410822D01*
X687773Y5419966D01*
X696917Y5429364D01*
X710633Y5433936D01*
X743145Y5433936D01*
X647895Y5336908D02*
G01*
X583379Y5433936D01*
X583379Y5336908D02*
G01*
X647895Y5433936D01*
X2425748Y4066811D02*
G01*
X2388664Y4163839D01*
X2351834Y4066811D02*
G01*
X2388664Y4163839D01*
X2321354Y4066811D02*
G01*
X2321354Y4163839D01*
X2290874Y4066811D02*
G01*
X2290874Y4163839D01*
X2290874Y4066811D02*
G01*
X2226104Y4163839D01*
X2226104Y4066811D02*
G01*
X2226104Y4163839D01*
X2480000Y4320913D02*
G01*
X2429200Y4320913D01*
X2456886Y4357743D01*
X2442916Y4357743D01*
X2433772Y4362569D01*
X2429200Y4367141D01*
X2424628Y4380857D01*
X2424628Y4390255D01*
X2429200Y4403971D01*
X2438344Y4413369D01*
X2452314Y4417941D01*
X2466030Y4417941D01*
X2480000Y4413369D01*
X2484572Y4408543D01*
X2489144Y4399399D01*
X2394148Y4320913D02*
G01*
X2357064Y4417941D01*
X2320234Y4320913D02*
G01*
X2357064Y4417941D01*
X2280356Y4320913D02*
G01*
X2229556Y4320913D01*
X2257496Y4357743D01*
X2243526Y4357743D01*
X2234382Y4362569D01*
X2229556Y4367141D01*
X2224984Y4380857D01*
X2224984Y4390255D01*
X2229556Y4403971D01*
X2238954Y4413369D01*
X2252670Y4417941D01*
X2266640Y4417941D01*
X2280356Y4413369D01*
X2285182Y4408543D01*
X2289754Y4399399D01*
X2420058Y4598027D02*
G01*
X2424630Y4588883D01*
X2433774Y4579485D01*
X2442918Y4574913D01*
X2461460Y4574913D01*
X2470858Y4579485D01*
X2480002Y4588883D01*
X2484574Y4598027D01*
X2489146Y4611743D01*
X2489146Y4634857D01*
X2484574Y4648827D01*
X2480002Y4657971D01*
X2470858Y4667369D01*
X2461460Y4671941D01*
X2442918Y4671941D01*
X2433774Y4667369D01*
X2424630Y4657971D01*
X2420058Y4648827D01*
X2420058Y4634857D01*
X2442918Y4634857D02*
G01*
X2420058Y4634857D01*
X2389578Y4574913D02*
G01*
X2389578Y4671941D01*
X2389578Y4574913D02*
G01*
X2324808Y4671941D01*
X2324808Y4574913D02*
G01*
X2324808Y4671941D01*
X2294328Y4574913D02*
G01*
X2294328Y4671941D01*
X2294328Y4574913D02*
G01*
X2262070Y4574913D01*
X2248100Y4579485D01*
X2238956Y4588883D01*
X2234384Y4598027D01*
X2229558Y4611743D01*
X2229558Y4634857D01*
X2234384Y4648827D01*
X2238956Y4657971D01*
X2248100Y4667369D01*
X2262070Y4671941D01*
X2294328Y4671941D01*
X2424549Y5096830D02*
G01*
X2433693Y5087432D01*
X2447663Y5082860D01*
X2466205Y5082860D01*
X2479921Y5087432D01*
X2489319Y5096830D01*
X2489319Y5105974D01*
X2484493Y5115118D01*
X2479921Y5119944D01*
X2470777Y5124516D01*
X2443091Y5133660D01*
X2433693Y5138232D01*
X2429121Y5143058D01*
X2424549Y5152202D01*
X2424549Y5165918D01*
X2433693Y5175316D01*
X2447663Y5179888D01*
X2466205Y5179888D01*
X2479921Y5175316D01*
X2489319Y5165918D01*
X2394069Y5082860D02*
G01*
X2394069Y5179888D01*
X2394069Y5082860D02*
G01*
X2361811Y5082860D01*
X2347841Y5087432D01*
X2338697Y5096830D01*
X2334125Y5105974D01*
X2329299Y5119944D01*
X2329299Y5143058D01*
X2334125Y5156774D01*
X2338697Y5165918D01*
X2347841Y5175316D01*
X2361811Y5179888D01*
X2394069Y5179888D01*
X2261989Y5082860D02*
G01*
X2298819Y5179888D01*
X2261989Y5082860D02*
G01*
X2225159Y5179888D01*
X2285103Y5147630D02*
G01*
X2238875Y5147630D01*
X2356482Y5359974D02*
G01*
X2361054Y5350830D01*
X2370198Y5341432D01*
X2379596Y5336860D01*
X2397884Y5336860D01*
X2407282Y5341432D01*
X2416426Y5350830D01*
X2420998Y5359974D01*
X2425824Y5373944D01*
X2425824Y5397058D01*
X2420998Y5410774D01*
X2416426Y5419918D01*
X2407282Y5429316D01*
X2397884Y5433888D01*
X2379596Y5433888D01*
X2370198Y5429316D01*
X2361054Y5419918D01*
X2356482Y5410774D01*
X2261232Y5350830D02*
G01*
X2270630Y5341432D01*
X2284346Y5336860D01*
X2302888Y5336860D01*
X2316604Y5341432D01*
X2326002Y5350830D01*
X2326002Y5359974D01*
X2321430Y5369118D01*
X2316604Y5373944D01*
X2307460Y5378516D01*
X2279774Y5387660D01*
X2270630Y5392232D01*
X2265804Y5397058D01*
X2261232Y5406202D01*
X2261232Y5419918D01*
X2270630Y5429316D01*
X2284346Y5433888D01*
X2302888Y5433888D01*
X2316604Y5429316D01*
X2326002Y5419918D01*
X2424620Y5604880D02*
G01*
X2433764Y5595482D01*
X2447734Y5590910D01*
X2466022Y5590910D01*
X2479992Y5595482D01*
X2489136Y5604880D01*
X2489136Y5614024D01*
X2484564Y5623168D01*
X2479992Y5627740D01*
X2470848Y5632566D01*
X2442908Y5641710D01*
X2433764Y5646282D01*
X2429192Y5650854D01*
X2424620Y5660252D01*
X2424620Y5673968D01*
X2433764Y5683366D01*
X2447734Y5687938D01*
X2466022Y5687938D01*
X2479992Y5683366D01*
X2489136Y5673968D01*
X2357056Y5590910D02*
G01*
X2394140Y5687938D01*
X2357056Y5590910D02*
G01*
X2320226Y5687938D01*
X2380170Y5655680D02*
G01*
X2333942Y5655680D01*
X2262060Y5590910D02*
G01*
X2275776Y5595482D01*
X2285174Y5609452D01*
X2289746Y5632566D01*
X2289746Y5646282D01*
X2285174Y5669396D01*
X2275776Y5683366D01*
X2262060Y5687938D01*
X2252662Y5687938D01*
X2238946Y5683366D01*
X2229548Y5669396D01*
X2224976Y5646282D01*
X2224976Y5632566D01*
X2229548Y5609452D01*
X2238946Y5595482D01*
X2252662Y5590910D01*
X2262060Y5590910D01*
X2424610Y4842885D02*
G01*
X2433754Y4833487D01*
X2447724Y4828915D01*
X2466012Y4828915D01*
X2479982Y4833487D01*
X2489126Y4842885D01*
X2489126Y4852029D01*
X2484554Y4861173D01*
X2479982Y4865745D01*
X2470838Y4870571D01*
X2442898Y4879715D01*
X2433754Y4884287D01*
X2429182Y4888859D01*
X2424610Y4898257D01*
X2424610Y4911973D01*
X2433754Y4921371D01*
X2447724Y4925943D01*
X2466012Y4925943D01*
X2479982Y4921371D01*
X2489126Y4911973D01*
X2324788Y4852029D02*
G01*
X2329360Y4842885D01*
X2338758Y4833487D01*
X2347902Y4828915D01*
X2366444Y4828915D01*
X2375588Y4833487D01*
X2384732Y4842885D01*
X2389558Y4852029D01*
X2394130Y4865745D01*
X2394130Y4888859D01*
X2389558Y4902829D01*
X2384732Y4911973D01*
X2375588Y4921371D01*
X2366444Y4925943D01*
X2347902Y4925943D01*
X2338758Y4921371D01*
X2329360Y4911973D01*
X2324788Y4902829D01*
X2294308Y4828915D02*
G01*
X2294308Y4925943D01*
X2294308Y4925943D02*
G01*
X2238936Y4925943D01*
X1569021Y5163040D02*
G01*
X1578256Y5167657D01*
X1587494Y5176895D01*
X1592112Y5186131D01*
X1592112Y5204604D01*
X1587494Y5213840D01*
X1578256Y5223078D01*
X1569021Y5227695D01*
X1555165Y5232313D01*
X1532074Y5232313D01*
X1518221Y5227695D01*
X1508986Y5223078D01*
X1499748Y5213840D01*
X1495130Y5204604D01*
X1495130Y5186131D01*
X1499748Y5176895D01*
X1508986Y5167657D01*
X1518221Y5163040D01*
X1532074Y5163040D01*
X1532074Y5186131D02*
G01*
X1532074Y5163040D01*
X1592112Y5132560D02*
G01*
X1545930Y5095615D01*
X1495130Y5095615D01*
X1592112Y5058669D02*
G01*
X1545930Y5095615D01*
X1536694Y5028189D02*
G01*
X1536694Y4945062D01*
X1592112Y4914582D02*
G01*
X1495130Y4914582D01*
X1592112Y4914582D02*
G01*
X1592112Y4873017D01*
X1587494Y4859164D01*
X1582874Y4854547D01*
X1573639Y4849929D01*
X1564403Y4849929D01*
X1555165Y4854547D01*
X1550548Y4859164D01*
X1545930Y4873017D01*
X1545930Y4914582D02*
G01*
X1545930Y4873017D01*
X1541312Y4859164D01*
X1536694Y4854547D01*
X1527456Y4849929D01*
X1513603Y4849929D01*
X1504365Y4854547D01*
X1499748Y4859164D01*
X1495130Y4873017D01*
X1495130Y4914582D01*
X1592112Y4819449D02*
G01*
X1495130Y4819449D01*
X1592112Y4819449D02*
G01*
X1495130Y4782502D01*
X1592112Y4745558D02*
G01*
X1495130Y4782502D01*
X1592112Y4745558D02*
G01*
X1495130Y4745558D01*
X1592112Y4715078D02*
G01*
X1495130Y4715078D01*
X1573639Y4684598D02*
G01*
X1578256Y4675360D01*
X1592112Y4661507D01*
X1495130Y4661507D01*
X1578256Y4575609D02*
G01*
X1587494Y4580227D01*
X1592112Y4594080D01*
X1592112Y4603318D01*
X1587494Y4617171D01*
X1573639Y4626409D01*
X1550548Y4631027D01*
X1527456Y4631027D01*
X1508986Y4626409D01*
X1499748Y4617171D01*
X1495130Y4603318D01*
X1495130Y4598697D01*
X1499748Y4584844D01*
X1508986Y4575609D01*
X1522839Y4570989D01*
X1527456Y4570989D01*
X1541312Y4575609D01*
X1550548Y4584844D01*
X1555165Y4598697D01*
X1555165Y4603318D01*
X1550548Y4617171D01*
X1541312Y4626409D01*
X1527456Y4631027D01*
X1592112Y4512800D02*
G01*
X1587494Y4526655D01*
X1573639Y4535891D01*
X1550548Y4540509D01*
X1536694Y4540509D01*
X1513603Y4535891D01*
X1499748Y4526655D01*
X1495130Y4512800D01*
X1495130Y4503564D01*
X1499748Y4489709D01*
X1513603Y4480473D01*
X1536694Y4475855D01*
X1550548Y4475855D01*
X1573639Y4480473D01*
X1587494Y4489709D01*
X1592112Y4503564D01*
X1592112Y4512800D01*
D12*
X299415Y10745292D02*
G01*
X2799410Y10745292D01*
X2799410Y6845300D01*
X299415Y6845300D01*
X299415Y10745292D01*
X1999411Y10645292D02*
G01*
X2599410Y10645292D01*
X2599410Y10045293D01*
X1999411Y10045293D01*
X1999411Y10645292D01*
X2049399Y11495278D02*
G01*
X2549397Y11495278D01*
X2549397Y10645267D01*
X2049399Y10645267D01*
X2049399Y11495278D01*
X25400Y5105400D02*
G01*
X279400Y5105400D01*
X279400Y25400D01*
X25400Y25400D01*
X25400Y5105400D01*
X2717800Y5105400D02*
G01*
X2971800Y5105400D01*
X2971800Y25400D01*
X2717800Y25400D01*
X2717800Y5105400D01*
X977905Y3327400D02*
G01*
X977905Y3390900D01*
X673105Y3390900D01*
X673105Y3318502D01*
X1200505Y3898496D02*
G01*
X450504Y3898496D01*
X1200505Y3898496D02*
G01*
X1200505Y3318502D01*
X450504Y3318502D01*
X450504Y3898496D01*
X884339Y3318510D02*
G01*
X908215Y3318510D01*
X933297Y-38100D02*
G01*
X933297Y1341907D01*
X2273300Y1341907D01*
X2273300Y-38100D01*
X933297Y-38100D01*
X1092200Y177800D02*
G01*
X1092200Y825500D01*
X1854200Y825500D01*
X1854200Y177800D01*
X1092200Y177800D01*
X1092200Y1079500D02*
G01*
X1092200Y1181100D01*
X1308100Y1181100D01*
X1308100Y1079500D01*
X1092200Y1079500D01*
X1403350Y1079500D02*
G01*
X1403350Y1181100D01*
X1619250Y1181100D01*
X1619250Y1079500D01*
X1403350Y1079500D01*
X1714500Y1079500D02*
G01*
X1714500Y1181100D01*
X1930400Y1181100D01*
X1930400Y1079500D01*
X1714500Y1079500D01*
X495350Y3251276D02*
G01*
X2349550Y3251276D01*
D10*
X368350Y1524076D02*
G01*
X368350Y3139516D01*
D12*
X635050Y2578176D02*
G01*
X698550Y2514676D01*
X698550Y2387676D01*
X635050Y2324176D01*
X698550Y2260676D01*
X698550Y2133676D01*
X635050Y2070176D01*
X698550Y2006676D01*
X698550Y1879676D01*
X635050Y1816176D01*
X508050Y1816176D01*
X444550Y1879676D01*
X444550Y2006676D01*
X508050Y2070176D01*
X444550Y2133676D01*
X444550Y2260676D01*
X508050Y2324176D01*
X444550Y2387676D01*
X444550Y2514676D01*
X508050Y2578176D01*
X444550Y2641676D01*
X444550Y2768676D01*
X508050Y2832176D01*
X635050Y2832176D01*
X698550Y2768676D01*
X698550Y2641676D01*
X635050Y2578176D01*
X508050Y2578176D01*
X508050Y2070176D02*
G01*
X635050Y2070176D01*
X508050Y2324176D02*
G01*
X635050Y2324176D01*
X508050Y2832176D02*
G01*
X444550Y2895676D01*
X444550Y3022676D01*
X508050Y3086176D01*
X635050Y3086176D01*
X698550Y3022676D01*
X698550Y2895676D01*
X635050Y2832176D01*
X635050Y1803476D02*
G01*
X698550Y1739976D01*
X698550Y1612976D01*
X635050Y1549476D01*
X508050Y1549476D01*
X444550Y1612976D01*
X444550Y1739976D01*
X508050Y1803476D01*
X495350Y1397076D02*
G01*
X2349550Y1397076D01*
D10*
X2476550Y3149676D02*
G01*
X2476550Y1524076D01*
D12*
X1155750Y1727276D02*
G01*
X2324150Y1727276D01*
X2324150Y2946476D02*
G01*
X1739950Y2946476D01*
X1612950Y2819476D01*
X1155750Y2819476D01*
X1612950Y2641676D02*
G01*
X1714550Y2641676D01*
X1714550Y1930476D01*
X1612950Y1930476D01*
X2476500Y2933700D02*
G01*
X3619500Y2933700D01*
X3619500Y1739900D01*
X2476500Y1739900D01*
X2476500Y2933700D01*
X2044700Y3962265D02*
G01*
X2171631Y3962313D01*
X2171700Y4089265D01*
X2171700Y5740265D01*
X2171700Y5740265D01*
X1028700Y5740265D01*
X901631Y5740313D01*
X901700Y5613265D01*
X901700Y4089265D01*
X901631Y3962313D01*
X1028700Y3962265D01*
X2044700Y3962265D01*
D10*
G75*
G01*
X368351Y3124276D02*
G02*
X495351Y3251276I127000J0D01*
G75*
G01*
X495351Y1397076D02*
G02*
X368351Y1524076I0J127000D01*
G75*
G01*
X2349551Y3251276D02*
G02*
X2476551Y3144596I16047J-109832D01*
G75*
G01*
X2476551Y1524076D02*
G02*
X2349551Y1397076I-127000J0D01*
M02*
